<svg width="200" height="200" viewBox="0 0 200 200" fill="none" xmlns="http://www.w3.org/2000/svg">
<g id="Component 78 1" clip-path="url(#clip0_2266_8221)">
<path id="Vector" d="M200 100C200 44.7715 155.228 0 100 0C44.7715 0 0 44.7715 0 100C0 155.228 44.7715 200 100 200C155.228 200 200 155.228 200 100Z" fill="#EEEEEE"/>
<path id="Vector_2" fill-rule="evenodd" clip-rule="evenodd" d="M99 45.25C85.8832 45.25 75.25 55.8832 75.25 69C75.25 82.1168 85.8832 92.75 99 92.75C112.117 92.75 122.75 82.1168 122.75 69C122.75 55.8832 112.117 45.25 99 45.25ZM82.75 69C82.75 60.0254 90.0254 52.75 99 52.75C107.975 52.75 115.25 60.0254 115.25 69C115.25 77.9746 107.975 85.25 99 85.25C90.0254 85.25 82.75 77.9746 82.75 69Z" fill="white"/>
<path id="Vector_3" fill-rule="evenodd" clip-rule="evenodd" d="M99 100.25C88.8033 100.25 79.3876 102.604 72.3907 106.602C65.5 110.54 60.25 116.551 60.25 124C60.25 131.449 65.5 137.46 72.3907 141.398C79.3876 145.396 88.8033 147.75 99 147.75C109.197 147.75 118.612 145.396 125.609 141.398C132.5 137.46 137.75 131.449 137.75 124C137.75 116.551 132.5 110.54 125.609 106.602C118.612 102.604 109.197 100.25 99 100.25ZM67.75 124C67.75 120.404 70.335 116.415 76.1118 113.114C81.7824 109.873 89.8667 107.75 99 107.75C108.133 107.75 116.218 109.873 121.888 113.114C127.665 116.415 130.25 120.404 130.25 124C130.25 127.596 127.665 131.585 121.888 134.886C116.218 138.127 108.133 140.25 99 140.25C89.8667 140.25 81.7824 138.127 76.1118 134.886C70.335 131.585 67.75 127.596 67.75 124Z" fill="white"/>
</g>
<defs>
<clipPath id="clip0_2266_8221">
<rect width="200" height="200" fill="white"/>
</clipPath>
</defs>
</svg>
